<svg xmlns="http://www.w3.org/2000/svg" viewBox="0 0 48 48" id="coal">
  <g>
    <path fill="#425b72" d="m38 9-3 1-1 4h-3l-3-3V8l4-3 4 1c1.07 1.61.62.94 2 3Z"></path>
    <path fill="#374f68" d="M33.83 14H31l-3-3V8l1.62-1.21c.51.51.38-.11.38 3.38Z"></path>
    <path fill="#425b72" d="M31 14h-9l1-3-2-4 3-3 4 4v3l3 3z"></path>
    <path fill="#a87e6b" d="M7 36h34v4H7z"></path>
    <path fill="#be927c" d="M41 36v2H11a2 2 0 0 1-2-2Z"></path>
    <path fill="#374f68" d="M19 40a4 4 0 1 1-5.64-3.64A4 4 0 0 1 19 40Z"></path>
    <path fill="#425b72" d="M18.64 41.64a4 4 0 0 1-5.28-5.28 4 4 0 0 1 5.28 5.28Z"></path>
    <path fill="#374f68" d="M37 40a4 4 0 1 1-5.64-3.64A4 4 0 0 1 37 40Z"></path>
    <path fill="#425b72" d="M36.64 41.64a4 4 0 0 1-5.28-5.28 4 4 0 0 1 5.28 5.28Z"></path>
    <path fill="#edebf2" d="M14 40.2a1 1 0 1 1 2-.2 1 1 0 0 1-2 .2zm19 .8a1 1 0 1 1 .38-1.92A1 1 0 0 1 33 41z"></path>
    <path fill="#df8761" d="M44 18c-5.07 18.27-4.2 15.16-5 18H9L4 18Z"></path>
    <path fill="#f29b75" d="m44 18-4.44 16h-13a21.84 21.84 0 0 1-21-16Z"></path>
    <path fill="#425b72" d="m17 9-2 2-.9 2.71c-.14.41.19.29-2.1.29-.09-.2 0-.07-2-4L5 9l4-3h4Z"></path>
    <path fill="#374f68" d="m17 9-2 2-.9 2.71c-.14.41.19.29-2.1.29-.09-.19-.2.3 1.25-4.08l2.14-2.13ZM25.16 10.85 24.11 14H22l1-3-2-4 1.49-1.49 2.67 5.34z"></path>
    <path fill="#425b72" d="m23 11-1 3h-8l1-3c2.52-2.52 1.2-1.6 6-4Z"></path>
    <path fill="#374f68" d="m38 9-3 1-1 4h-2.06l1.39-5.55 3.52-1.17L38 9z"></path>
    <path fill="#425b72" d="M44 14H34l1-4 6-2 2 2 1 4z"></path>
    <path fill="#374f68" d="M14.1 13.71c-.14.41.19.29-2.1.29l-2-4-5-1 2.15-1.61 4.2.84Z"></path>
    <path fill="#425b72" d="M12 14H4l1-5 5 1 2 4z"></path>
    <path fill="#fc6" d="M47 16a2 2 0 0 1-2 2H3a2 2 0 0 1 0-4h42a2 2 0 0 1 2 2Z"></path>
    <path fill="#ffde76" d="M47 16H5a2 2 0 0 1-2-2h42a2 2 0 0 1 2 2Z"></path>
  </g>
</svg>
